Coordinates
version=1
nRows=6
nColumns=63
inDegrees=yes

Units are S.I. units (second, meters, Newtons, ...)
If the header above contains a line with 'inDegrees', this indicates whether rotational values are in degrees (yes) or radians (no).

endheader
time	pelvis_tilt	pelvis_list	pelvis_rotation	pelvis_tx	pelvis_ty	pelvis_tz	hip_flexion_r	hip_adduction_r	hip_rotation_r	knee_angle_r	knee_angle_r_beta	ankle_angle_r	subtalar_angle_r	mtp_angle_r	hip_flexion_l	hip_adduction_l	hip_rotation_l	knee_angle_l	knee_angle_l_beta	ankle_angle_l	subtalar_angle_l	mtp_angle_l	L5_S1_Flex_Ext	L5_S1_Lat_Bending	L5_S1_axial_rotation	L4_L5_Flex_Ext	L4_L5_Lat_Bending	L4_L5_axial_rotation	L3_L4_Flex_Ext	L3_L4_Lat_Bending	L3_L4_axial_rotation	L2_L3_Flex_Ext	L2_L3_Lat_Bending	L2_L3_axial_rotation	L1_L2_Flex_Ext	L1_L2_Lat_Bending	L1_L2_axial_rotation	L1_T12_Flex_Ext	L1_T12_Lat_Bending	L1_T12_axial_rotation	Abs_r3	Abs_r2	Abs_r1	Abs_t1	Abs_t2	neck_flexion	neck_bending	neck_rotation	arm_flex_r	arm_add_r	arm_rot_r	elbow_flex_r	pro_sup_r	wrist_flex_r	wrist_dev_r	arm_flex_l	arm_add_l	arm_rot_l	elbow_flex_l	pro_sup_l	wrist_flex_l	wrist_dev_l
1.300000	1.932478	-4.161921	93.163754	0.222891	1.096710	0.452971	-0.014929	0.152138	-1.683382	6.890055	0.120254	28.481944	15.463813	0.000000	0.191736	-4.137326	1.116239	5.251019	0.091648	25.461078	5.929408	0.000000	0.087236	0.317706	1.243624	0.162006	0.422549	1.321351	0.143320	0.772470	1.321351	0.099702	0.772470	1.088171	0.081007	0.647866	1.010445	0.049847	0.492126	0.932718	0.623118	3.593951	6.916664	0.000000	0.000000	25.389688	-2.954015	-0.201642	9.596380	-10.522601	30.822295	40.413869	73.750991	1.819959	7.908147	17.544861	-8.911336	67.052885	31.453994	56.209804	5.608913	-1.653023
1.316667	1.886868	-4.261709	93.349622	0.222083	1.096008	0.453162	0.093097	0.060857	-1.935044	6.985962	0.121928	28.533138	15.416305	0.000000	0.233128	-4.007113	2.352914	5.085577	0.088760	25.230629	4.785633	0.000000	0.090416	0.321220	1.161404	0.167911	0.427222	1.233991	0.148544	0.781013	1.233991	0.103336	0.781013	1.016228	0.083960	0.655031	0.943640	0.051663	0.497569	0.871053	0.645830	3.633701	6.459378	0.000000	0.000000	25.578314	-2.817759	0.340241	9.192326	-11.040191	26.946349	40.069025	77.097264	1.262653	8.765020	17.480292	-8.872488	69.039887	29.831412	52.148246	4.095252	-0.977568
1.333333	1.830239	-4.359637	93.474104	0.221411	1.095373	0.453352	0.204600	-0.037339	-2.122991	7.089366	0.123733	28.552943	15.351078	0.000000	0.267802	-3.866436	3.557414	4.938685	0.086196	24.967230	3.591159	0.000000	0.093939	0.322910	1.091086	0.174455	0.429470	1.159279	0.154333	0.785122	1.159279	0.107363	0.785122	0.954700	0.087232	0.658477	0.886507	0.053677	0.500187	0.818314	0.671000	3.652817	6.068291	0.000000	0.000000	25.732725	-2.669661	0.867299	8.994920	-11.410383	26.494428	38.877503	78.472258	0.909813	9.124049	17.520349	-8.796365	72.399189	27.953185	47.994083	2.495268	-0.758524
1.350000	1.775392	-4.445800	93.519157	0.220881	1.094809	0.453473	0.307216	-0.129767	-2.237821	7.195819	0.125591	28.552330	15.294651	0.000000	0.275771	-3.729412	4.678741	4.800157	0.083779	24.697047	2.392200	0.000000	0.096641	0.324896	1.036887	0.179472	0.432112	1.101692	0.158772	0.789952	1.101692	0.110451	0.789952	0.907276	0.089741	0.662528	0.842471	0.055221	0.503264	0.777665	0.690299	3.675290	5.766854	0.000000	0.000000	25.860404	-2.538756	1.393483	8.980848	-11.664709	29.124849	37.002301	78.130814	0.638312	9.078200	17.632327	-8.682169	76.946668	25.897134	44.396180	0.694612	-0.924229
1.366667	1.729653	-4.521265	93.478300	0.220510	1.094301	0.453476	0.396335	-0.206179	-2.269125	7.294594	0.127315	28.531032	15.234530	0.000000	0.255244	-3.606026	5.663251	4.667280	0.081459	24.432567	1.227641	0.000000	0.099394	0.327615	1.001664	0.184586	0.435727	1.064269	0.163295	0.796562	1.064269	0.113598	0.796562	0.876456	0.092298	0.668072	0.813852	0.056794	0.507475	0.751248	0.709965	3.706042	5.570957	0.000000	0.000000	25.964540	-2.416316	1.900698	9.141045	-11.826507	34.444658	34.606855	76.241365	0.407161	8.693462	17.801203	-8.530597	82.566602	23.734497	41.484478	-1.234528	-1.319754
1.383333	1.696906	-4.579084	93.347001	0.220313	1.093848	0.453321	0.465235	-0.263253	-2.214394	7.389827	0.128977	28.498284	15.189117	0.000000	0.192510	-3.504237	6.454912	4.529581	0.079056	24.180743	0.176321	0.000000	0.101374	0.331727	0.985412	0.188261	0.441197	1.047001	0.166547	0.806562	1.047001	0.115860	0.806562	0.862236	0.094136	0.676458	0.800647	0.057925	0.513846	0.739059	0.724102	3.752565	5.480568	0.000000	0.000000	26.059667	-2.323270	2.395085	9.461174	-11.902556	42.066237	31.819159	72.940944	0.252302	8.050727	18.001639	-8.347424	89.065856	21.544857	39.372180	-3.189884	-1.817933
